<mxfile host="Electron" modified="2024-02-05T15:56:45.845Z" agent="Mozilla/5.0 (Windows NT 10.0; Win64; x64) AppleWebKit/537.36 (KHTML, like Gecko) draw.io/23.0.2 Chrome/120.0.6099.109 Electron/28.1.0 Safari/537.36" etag="AtHMMNKMQQoAWOnPHcH1" version="23.0.2" type="device">
  <diagram name="Page-1" id="Kw7IlZhHVrxqmidD7tPI">
    <mxGraphModel dx="1050" dy="638" grid="1" gridSize="10" guides="1" tooltips="1" connect="1" arrows="1" fold="1" page="1" pageScale="1" pageWidth="850" pageHeight="1100" math="0" shadow="0">
      <root>
        <mxCell id="0" />
        <mxCell id="1" parent="0" />
        <mxCell id="_nDPgxrzfh6r6uQDGKu--14" value="" style="rounded=1;whiteSpace=wrap;html=1;fontSize=16;dashed=1;strokeWidth=2;fontFamily=Times New Roman;" vertex="1" parent="1">
          <mxGeometry x="163" y="320" width="525" height="150" as="geometry" />
        </mxCell>
        <mxCell id="hvqsOuBeVW-XlN6jNGg_-3" value="" style="group;strokeWidth=1;fontFamily=Times New Roman;" parent="1" vertex="1" connectable="0">
          <mxGeometry x="175" y="120" width="500" height="100" as="geometry" />
        </mxCell>
        <mxCell id="hvqsOuBeVW-XlN6jNGg_-1" value="" style="rounded=1;whiteSpace=wrap;html=1;fontFamily=Times New Roman;" parent="hvqsOuBeVW-XlN6jNGg_-3" vertex="1">
          <mxGeometry width="500" height="100" as="geometry" />
        </mxCell>
        <mxCell id="hvqsOuBeVW-XlN6jNGg_-2" value="&lt;b style=&quot;font-size: 31px;&quot;&gt;&lt;font style=&quot;font-size: 31px;&quot;&gt;Satellite Constellation&lt;/font&gt;&lt;/b&gt;" style="text;html=1;strokeColor=none;fillColor=none;align=center;verticalAlign=middle;whiteSpace=wrap;rounded=0;fontFamily=Times New Roman;fontSize=31;" parent="hvqsOuBeVW-XlN6jNGg_-3" vertex="1">
          <mxGeometry x="55" y="35" width="390" height="30" as="geometry" />
        </mxCell>
        <mxCell id="hvqsOuBeVW-XlN6jNGg_-4" value="" style="endArrow=classic;html=1;rounded=0;fontFamily=Times New Roman;entryX=0.5;entryY=0;entryDx=0;entryDy=0;" parent="1" edge="1" target="_nDPgxrzfh6r6uQDGKu--14">
          <mxGeometry width="50" height="50" relative="1" as="geometry">
            <mxPoint x="426" y="220" as="sourcePoint" />
            <mxPoint x="424" y="360" as="targetPoint" />
          </mxGeometry>
        </mxCell>
        <mxCell id="_nDPgxrzfh6r6uQDGKu--6" value="" style="group;verticalAlign=middle;align=center;fontFamily=Times New Roman;" vertex="1" connectable="0" parent="1">
          <mxGeometry x="175" y="360" width="517.5" height="120" as="geometry" />
        </mxCell>
        <mxCell id="_nDPgxrzfh6r6uQDGKu--16" value="" style="group;fontFamily=Times New Roman;" vertex="1" connectable="0" parent="_nDPgxrzfh6r6uQDGKu--6">
          <mxGeometry width="120" height="70" as="geometry" />
        </mxCell>
        <mxCell id="_nDPgxrzfh6r6uQDGKu--7" value="" style="rounded=1;whiteSpace=wrap;html=1;strokeWidth=3;container=0;fontFamily=Times New Roman;" vertex="1" parent="_nDPgxrzfh6r6uQDGKu--16">
          <mxGeometry width="120" height="70" as="geometry" />
        </mxCell>
        <mxCell id="_nDPgxrzfh6r6uQDGKu--8" value="GNSS&lt;br style=&quot;font-size: 20px;&quot;&gt;" style="text;html=1;strokeColor=none;fillColor=none;align=center;verticalAlign=middle;whiteSpace=wrap;rounded=0;horizontal=1;fontFamily=Times New Roman;fontStyle=1;fontSize=20;container=0;" vertex="1" parent="_nDPgxrzfh6r6uQDGKu--16">
          <mxGeometry x="33.60000000000002" y="24.5" width="52.8" height="21" as="geometry" />
        </mxCell>
        <mxCell id="_nDPgxrzfh6r6uQDGKu--3" value="" style="rounded=1;whiteSpace=wrap;html=1;strokeWidth=3;container=0;fontFamily=Times New Roman;" vertex="1" parent="_nDPgxrzfh6r6uQDGKu--6">
          <mxGeometry x="380" width="120" height="70" as="geometry" />
        </mxCell>
        <mxCell id="_nDPgxrzfh6r6uQDGKu--23" value="" style="endArrow=classic;startArrow=classic;html=1;rounded=0;entryX=0;entryY=0.5;entryDx=0;entryDy=0;" edge="1" parent="_nDPgxrzfh6r6uQDGKu--6" target="hvqsOuBeVW-XlN6jNGg_-6">
          <mxGeometry width="50" height="50" relative="1" as="geometry">
            <mxPoint x="120" y="34.5" as="sourcePoint" />
            <mxPoint x="170" y="34.5" as="targetPoint" />
          </mxGeometry>
        </mxCell>
        <mxCell id="_nDPgxrzfh6r6uQDGKu--12" style="edgeStyle=none;curved=1;rounded=0;orthogonalLoop=1;jettySize=auto;html=1;exitX=1;exitY=0.5;exitDx=0;exitDy=0;entryX=0;entryY=0.5;entryDx=0;entryDy=0;fontSize=12;startSize=8;endSize=8;fontFamily=Times New Roman;" edge="1" parent="1" source="hvqsOuBeVW-XlN6jNGg_-6" target="_nDPgxrzfh6r6uQDGKu--3">
          <mxGeometry relative="1" as="geometry" />
        </mxCell>
        <mxCell id="hvqsOuBeVW-XlN6jNGg_-6" value="" style="rounded=1;whiteSpace=wrap;html=1;strokeWidth=3;container=0;fontFamily=Times New Roman;" parent="1" vertex="1">
          <mxGeometry x="365" y="360" width="120" height="70" as="geometry" />
        </mxCell>
        <mxCell id="_nDPgxrzfh6r6uQDGKu--1" value="&lt;span style=&quot;font-size: 20px;&quot;&gt;&lt;b&gt;Processing Subsystem&lt;br&gt;&lt;br&gt;&lt;/b&gt;&lt;/span&gt;" style="text;html=1;strokeColor=none;fillColor=none;align=center;verticalAlign=middle;whiteSpace=wrap;rounded=0;horizontal=1;fontFamily=Times New Roman;container=0;" vertex="1" parent="1">
          <mxGeometry x="399" y="395.5" width="52.8" height="21" as="geometry" />
        </mxCell>
        <mxCell id="_nDPgxrzfh6r6uQDGKu--4" value="&lt;span style=&quot;font-size: 20px;&quot;&gt;&lt;b&gt;Display&lt;br&gt;&lt;br&gt;&lt;/b&gt;&lt;/span&gt;" style="text;html=1;strokeColor=none;fillColor=none;align=center;verticalAlign=middle;whiteSpace=wrap;rounded=0;horizontal=1;fontFamily=Times New Roman;container=0;" vertex="1" parent="1">
          <mxGeometry x="588.6" y="405.5" width="52.8" height="1" as="geometry" />
        </mxCell>
        <mxCell id="_nDPgxrzfh6r6uQDGKu--24" value="" style="endArrow=classic;startArrow=classic;html=1;rounded=0;entryX=0;entryY=0.5;entryDx=0;entryDy=0;exitX=1;exitY=0.5;exitDx=0;exitDy=0;" edge="1" parent="1" source="_nDPgxrzfh6r6uQDGKu--7" target="hvqsOuBeVW-XlN6jNGg_-6">
          <mxGeometry width="50" height="50" relative="1" as="geometry">
            <mxPoint x="295" y="394.5" as="sourcePoint" />
            <mxPoint x="345" y="394.5" as="targetPoint" />
          </mxGeometry>
        </mxCell>
        <mxCell id="_nDPgxrzfh6r6uQDGKu--25" value="&lt;div style=&quot;text-align: center;&quot;&gt;&lt;span style=&quot;background-color: initial;&quot;&gt;&lt;font size=&quot;1&quot; style=&quot;&quot; face=&quot;Times New Roman&quot;&gt;&lt;b style=&quot;font-size: 23px;&quot;&gt;Navigation System&lt;/b&gt;&lt;/font&gt;&lt;/span&gt;&lt;/div&gt;" style="text;whiteSpace=wrap;html=1;" vertex="1" parent="1">
          <mxGeometry x="340" y="480" width="200" height="40" as="geometry" />
        </mxCell>
      </root>
    </mxGraphModel>
  </diagram>
</mxfile>
